<?xml version="1.0" encoding="UTF-8"?> <svg xmlns="http://www.w3.org/2000/svg" xmlns:xlink="http://www.w3.org/1999/xlink" width="294" height="93" viewBox="0 0 146.633 46.393"><defs><clipPath id="clip-path"><path id="Tracé_278" data-name="Tracé 278" d="M739.842,76.615c.258.2.722-.97.642-1.109-9.328-5.468-.354-8.753.444-9.029-8.366,2.84-4.874,7.241-1.086,10.138m1.086-10.138.056-.019-.056.019" transform="translate(-735.783 -66.458)" fill="none"></path></clipPath><linearGradient id="linear-gradient" x1="-8.179" y1="3.801" x2="-8.168" y2="3.801" gradientUnits="objectBoundingBox"><stop offset="0" stop-color="#fff"></stop><stop offset="1" stop-color="#ffb301"></stop></linearGradient><clipPath id="clip-path-2"><path id="Tracé_283" data-name="Tracé 283" d="M764.315,31.489s.9.176,1.085.786a25.9,25.9,0,0,1,.371,2.914l11.02-5.146Z" transform="translate(-764.315 -30.042)" fill="none"></path></clipPath><linearGradient id="linear-gradient-2" x1="-8.793" y1="6.807" x2="-8.782" y2="6.807" gradientUnits="objectBoundingBox"><stop offset="0" stop-color="#e21412"></stop><stop offset="0.267" stop-color="#cb1512"></stop><stop offset="0.744" stop-color="#a71813"></stop><stop offset="1" stop-color="#9a1914"></stop></linearGradient><clipPath id="clip-path-3"><path id="Tracé_285" data-name="Tracé 285" d="M776.5,32.813a1.092,1.092,0,0,0-.861-.465c-.827-.054-1.519,2.147-1.682,2.71l.031.1,10.952-5.115Z" transform="translate(-773.96 -30.042)" fill="none"></path></clipPath><linearGradient id="linear-gradient-3" x1="-9.927" y1="6.902" x2="-9.914" y2="6.902" xlink:href="#linear-gradient-2"></linearGradient><clipPath id="clip-path-4"><path id="Tracé_288" data-name="Tracé 288" d="M892.394,26.838c-2.443.8-2.368,1.756-2.368,1.756l.708,2.735c.036-.008.272-.067.464-.125,4.33-1.209,5.335-2.766,5.335-2.766a9.354,9.354,0,0,1-2.569,1.207,9.321,9.321,0,0,0,4.937-5.91,5.123,5.123,0,0,1-1.51,1.249,5.705,5.705,0,0,0,1.48-2.482,7.114,7.114,0,0,1-2.18,2.1,5.5,5.5,0,0,0,1.6-3.363c-.4,2.886-4.78,5.2-5.9,5.6" transform="translate(-890.025 -21.236)" fill="none"></path></clipPath><linearGradient id="linear-gradient-4" x1="-12.197" y1="4.774" x2="-12.183" y2="4.774" gradientUnits="objectBoundingBox"><stop offset="0" stop-color="#34b3d1"></stop><stop offset="1" stop-color="#0860a8"></stop></linearGradient></defs><g id="Groupe_411" data-name="Groupe 411" transform="translate(-109.854 21.5)"><g id="Groupe_227" data-name="Groupe 227" transform="translate(223.738 -11.214)" clip-path="url(#clip-path)"><rect id="Rectangle_235" data-name="Rectangle 235" width="13.154" height="13.425" transform="translate(-8.43 1.663) rotate(-23.629)" fill="url(#linear-gradient)"></rect></g><g id="Groupe_409" data-name="Groupe 409" transform="translate(109.854 -21.5)"><path id="Tracé_279" data-name="Tracé 279" d="M768.578,76.083a22.53,22.53,0,0,1,13.029,1.823,20.327,20.327,0,0,0-13.722-2.569c-8.219,1.167-14.48,6.334-15.265,12.131,1.655-5.533,7.932-10.246,15.958-11.385" transform="translate(-636.13 -63.475)" fill="#2a2171"></path><path id="Tracé_280" data-name="Tracé 280" d="M864.9,8.47l-1.067.083,1.067.08-1.718,2,2-1.719.081,1.068.083-1.068,2,1.715-1.715-2,1.067-.084-1.067-.08,1.715-2-2,1.718-.08-1.065-.082,1.066-2-1.714Z" transform="translate(-729.576 -5.467)" fill="#93bf20"></path><path id="Tracé_281" data-name="Tracé 281" d="M877.152,8.915l2,1.715-1.715-2,1.067-.084-1.067-.08,1.715-2-2,1.718.272.281v.159Z" transform="translate(-741.388 -5.467)" fill="#2f8a31"></path><path id="Tracé_282" data-name="Tracé 282" d="M764.315,31.489s.9.176,1.085.786a25.893,25.893,0,0,1,.371,2.914l11.02-5.146Z" transform="translate(-646.015 -25.392)" fill="#2a2171"></path></g><g id="Groupe_231" data-name="Groupe 231" transform="translate(228.154 -16.85)" clip-path="url(#clip-path-2)"><rect id="Rectangle_237" data-name="Rectangle 237" width="13.401" height="8.315" transform="translate(-1.334 0.373) rotate(-15.618)" fill="url(#linear-gradient-2)"></rect></g><g id="Groupe_235" data-name="Groupe 235" transform="translate(229.647 -16.85)" clip-path="url(#clip-path-3)"><rect id="Rectangle_239" data-name="Rectangle 239" width="12.016" height="8.196" transform="matrix(0.953, -0.302, 0.302, 0.953, -1.474, 0.468)" fill="url(#linear-gradient-3)"></rect></g><g id="Groupe_410" data-name="Groupe 410" transform="translate(109.854 -21.5)"><path id="Tracé_286" data-name="Tracé 286" d="M783.266,32.395a.513.513,0,0,1,.242-.046,1.091,1.091,0,0,1,.861.465l8.44-2.771" transform="translate(-662.033 -25.392)" fill="#e95c3f"></path><path id="Tracé_287" data-name="Tracé 287" d="M898.873,22.5a7.115,7.115,0,0,1-2.181,2.1,5.5,5.5,0,0,0,1.6-3.363c-.4,2.886-4.78,5.2-5.9,5.6-2.443.8-2.368,1.756-2.368,1.756l.708,2.735c.036-.008.272-.066.464-.124,4.33-1.209,5.335-2.766,5.335-2.766a9.359,9.359,0,0,1-2.569,1.207,9.32,9.32,0,0,0,4.937-5.91,5.121,5.121,0,0,1-1.51,1.248,5.705,5.705,0,0,0,1.48-2.482" transform="translate(-752.269 -17.949)" fill="#2a2171"></path></g><g id="Groupe_239" data-name="Groupe 239" transform="translate(247.611 -18.213)" clip-path="url(#clip-path-4)"><rect id="Rectangle_241" data-name="Rectangle 241" width="11.196" height="12.016" transform="matrix(0.968, -0.251, 0.251, 0.968, -2.525, 0.635)" fill="url(#linear-gradient-4)"></rect></g><path id="Tracé_289" data-name="Tracé 289" d="M822.574,57.764s-.4-.875-2.922-.386c-1.178.189-6.125.3-7.879-2.031a5.5,5.5,0,0,0,3.035,2.162,7.109,7.109,0,0,1-2.925-.775,5.7,5.7,0,0,0,2.5,1.45,5.117,5.117,0,0,1-1.927-.358,9.323,9.323,0,0,0,7.185,2.77,9.38,9.38,0,0,1-2.832.193s1.638.875,6.022-.176c.26-.063.42-.1.452-.113Z" transform="translate(-576.274 -68.28)" fill="#1aa4c9"></path><path id="Tracé_290" data-name="Tracé 290" d="M878.816,59.246a3.483,3.483,0,0,0-.325-2.124,1.467,1.467,0,0,0-2.261.586,3.512,3.512,0,0,0,.747,2.014c.275.469,1.315,2.47.094,4.056a2.575,2.575,0,0,1,1.993.267l.006.025h0l.009-.015.014.009h0l-.008-.026a2.581,2.581,0,0,1,1.614-1.2c-1.837-.793-1.9-3.048-1.887-3.59" transform="translate(-630.755 -69.401)" fill="#1aa4c9"></path><path id="Tracé_291" data-name="Tracé 291" d="M1.268,27.218H0V7.988H9.959V9.225H1.268v8.155H9.474v1.25H1.268Z" transform="translate(109.854 -28.252)" fill="#2a2171"></path><path id="Tracé_292" data-name="Tracé 292" d="M87.471,45.475a8.415,8.415,0,0,1-1.6,5.465,5.4,5.4,0,0,1-4.426,1.966A5.5,5.5,0,0,1,78.307,52a5.73,5.73,0,0,1-2.076-2.6,9.947,9.947,0,0,1-.721-3.919,8.36,8.36,0,0,1,1.6-5.452,5.388,5.388,0,0,1,4.4-1.953,5.291,5.291,0,0,1,4.37,1.979,8.45,8.45,0,0,1,1.585,5.425m-10.668,0a7.579,7.579,0,0,0,1.225,4.6,4.457,4.457,0,0,0,6.925,0,7.581,7.581,0,0,0,1.225-4.6,7.459,7.459,0,0,0-1.237-4.59,4.11,4.11,0,0,0-3.475-1.631,4.05,4.05,0,0,0-3.45,1.624,7.568,7.568,0,0,0-1.212,4.6" transform="translate(46.031 -53.678)" fill="#2a2171"></path><path id="Tracé_293" data-name="Tracé 293" d="M186.391,52.642V43.37a4.7,4.7,0,0,0-.858-3.137,3.355,3.355,0,0,0-2.661-.98,4.461,4.461,0,0,0-3.55,1.3,6.353,6.353,0,0,0-1.125,4.2v7.892h-1.231v-14.3h1.044l.236,1.96h.075q1.318-2.236,4.687-2.236,4.6,0,4.6,5.222v9.351Z" transform="translate(-39.721 -53.677)" fill="#2a2171"></path><path id="Tracé_294" data-name="Tracé 294" d="M274.676,5.893a5.356,5.356,0,0,1,2.536.566,5.181,5.181,0,0,1,1.915,1.933h.075q-.074-1.657-.075-3.249V0h1.218V20.466h-.808l-.311-2.183h-.1a4.931,4.931,0,0,1-4.426,2.446,5.165,5.165,0,0,1-4.277-1.841,8.406,8.406,0,0,1-1.48-5.366,9.343,9.343,0,0,1,1.467-5.669,5,5,0,0,1,4.265-1.96m0,1.184a3.75,3.75,0,0,0-3.326,1.644,8.513,8.513,0,0,0-1.113,4.774q0,6.077,4.464,6.077a3.946,3.946,0,0,0,3.357-1.407,7.8,7.8,0,0,0,1.069-4.643V13.3a8.321,8.321,0,0,0-1.051-4.768,3.91,3.91,0,0,0-3.4-1.453" transform="translate(-117.463 -21.501)" fill="#2a2171"></path><path id="Tracé_295" data-name="Tracé 295" d="M374.43,52.787l-.311-2.262h-.1a6.543,6.543,0,0,1-2.095,1.953,5.34,5.34,0,0,1-2.543.572,4.249,4.249,0,0,1-3.1-1.078,3.976,3.976,0,0,1-1.106-2.986,3.742,3.742,0,0,1,1.647-3.249,8.58,8.58,0,0,1,4.768-1.223l2.574-.079v-.947a5.07,5.07,0,0,0-.783-3.078,2.957,2.957,0,0,0-2.524-1.039,8.085,8.085,0,0,0-3.892,1.1l-.46-1.131a9.837,9.837,0,0,1,4.4-1.1,4.249,4.249,0,0,1,3.326,1.223,5.582,5.582,0,0,1,1.1,3.814v9.509Zm-4.973-.921a4.494,4.494,0,0,0,3.413-1.309,5.05,5.05,0,0,0,1.25-3.637V45.513l-2.362.105a8.531,8.531,0,0,0-4.06.94,3.16,3.16,0,0,0-.435,4.564,3.048,3.048,0,0,0,2.195.743" transform="translate(-198.804 -53.821)" fill="#2a2171"></path><path id="Tracé_296" data-name="Tracé 296" d="M451.993,34.367a8.742,8.742,0,0,0,2.039-.21v1.052a6.194,6.194,0,0,1-2.064.316,3.26,3.26,0,0,1-2.642-1.013,4.894,4.894,0,0,1-.852-3.183V22.1h-2v-.763l2-.592.621-3.236h.634v3.459H453.7V22.1h-3.966v9.049a4.319,4.319,0,0,0,.547,2.433,1.942,1.942,0,0,0,1.716.789" transform="translate(-267.514 -36.296)" fill="#2a2171"></path><path id="Tracé_297" data-name="Tracé 297" d="M513.065,7.3q0-1.263.783-1.263a.686.686,0,0,1,.6.329,1.688,1.688,0,0,1,.218.934,1.728,1.728,0,0,1-.218.934.679.679,0,0,1-.6.342q-.783,0-.783-1.276m1.405,18.269h-1.231v-14.3h1.231Z" transform="translate(-323.799 -26.6)" fill="#2a2171"></path><path id="Tracé_298" data-name="Tracé 298" d="M558.284,45.475a8.415,8.415,0,0,1-1.6,5.465,5.4,5.4,0,0,1-4.426,1.966A5.5,5.5,0,0,1,549.121,52a5.73,5.73,0,0,1-2.076-2.6,9.948,9.948,0,0,1-.721-3.919,8.361,8.361,0,0,1,1.6-5.452,5.388,5.388,0,0,1,4.4-1.953,5.292,5.292,0,0,1,4.371,1.979,8.45,8.45,0,0,1,1.585,5.425m-10.668,0a7.58,7.58,0,0,0,1.225,4.6,4.457,4.457,0,0,0,6.925,0,7.58,7.58,0,0,0,1.225-4.6,7.459,7.459,0,0,0-1.237-4.59,4.11,4.11,0,0,0-3.475-1.631,4.049,4.049,0,0,0-3.45,1.624,7.567,7.567,0,0,0-1.212,4.6" transform="translate(-351.91 -53.678)" fill="#2a2171"></path><path id="Tracé_299" data-name="Tracé 299" d="M657.2,52.642V43.37a4.7,4.7,0,0,0-.858-3.137,3.354,3.354,0,0,0-2.661-.98,4.461,4.461,0,0,0-3.55,1.3,6.354,6.354,0,0,0-1.125,4.2v7.892h-1.231v-14.3h1.044l.236,1.96h.075q1.318-2.236,4.687-2.236,4.6,0,4.6,5.222v9.351Z" transform="translate(-437.662 -53.677)" fill="#2a2171"></path><rect id="Rectangle_242" data-name="Rectangle 242" width="2.832" height="20.768" transform="translate(109.879 3.837)" fill="#2a2171"></rect><path id="Tracé_300" data-name="Tracé 300" d="M53.4,184.655a3.172,3.172,0,0,1-2.738-1.505,9.446,9.446,0,0,1-1.41-3.907l2.074-1.025q.745,3.075,2.074,3.075a1.161,1.161,0,0,0,1.021-.536,2.691,2.691,0,0,0,.362-1.513,3.91,3.91,0,0,0-.691-2.37L51.325,173.8a8.969,8.969,0,0,1-.778-.873,7.779,7.779,0,0,1-.637-1,5.111,5.111,0,0,1-.491-1.329,7.214,7.214,0,0,1-.167-1.6,6.25,6.25,0,0,1,1.129-4.02A3.686,3.686,0,0,1,53.4,163.58a3.144,3.144,0,0,1,1.62.424,3.6,3.6,0,0,1,1.215,1.193,7.835,7.835,0,0,1,.81,1.706,12.73,12.73,0,0,1,.5,2.09l-2.074,1.025q-.151-.609-.3-1.049a8.145,8.145,0,0,0-.405-.953,2.336,2.336,0,0,0-.6-.793,1.19,1.19,0,0,0-.767-.28,1.161,1.161,0,0,0-1.021.536,2.69,2.69,0,0,0-.362,1.513,2.52,2.52,0,0,0,.691,1.73l2.765,3.075a10.4,10.4,0,0,1,.794,1.049,9.776,9.776,0,0,1,.643,1.169,6.373,6.373,0,0,1,.475,1.481,8.965,8.965,0,0,1,.162,1.746,6.251,6.251,0,0,1-1.129,4.02,3.686,3.686,0,0,1-3.019,1.393" transform="translate(68.226 -159.761)" fill="#2a2171"></path><path id="Tracé_301" data-name="Tracé 301" d="M142.773,184.655a2.311,2.311,0,0,1-1.96-1.481,6.877,6.877,0,0,1-.8-3.339,10.038,10.038,0,0,1,.34-2.706,10.413,10.413,0,0,1,.718-1.946,5.4,5.4,0,0,1,1.264-1.505,12.472,12.472,0,0,1,1.339-1.065q.453-.288,1.577-.945.194-.112.292-.176v-1.473a7.8,7.8,0,0,0-.292-2.41,1.1,1.1,0,0,0-1.091-.857,1.052,1.052,0,0,0-1.021.729,5.805,5.805,0,0,0-.351,2.01q-.011.176-.011.528h-2.765a8.911,8.911,0,0,1,1.112-4.692,3.5,3.5,0,0,1,6.075.024,8.708,8.708,0,0,1,1.107,4.668v9.224a29.287,29.287,0,0,0,.356,5.124h-2.754l-.367-3.075q-.216.641-.351.993t-.394.873a3.457,3.457,0,0,1-.518.8,2.438,2.438,0,0,1-.648.488,1.782,1.782,0,0,1-.853.208m1.382-3.363a.832.832,0,0,0,.567-.256,2.246,2.246,0,0,0,.416-.5q.14-.24.346-.641a.672.672,0,0,1,.054-.112v-5.669q-.173.176-.573.545t-.637.6a8.062,8.062,0,0,0-.572.641,4.079,4.079,0,0,0-.519.785,4.914,4.914,0,0,0-.324.921,4.536,4.536,0,0,0-.14,1.137q0,2.546,1.382,2.546" transform="translate(-8.484 -159.761)" fill="#2a2171"></path><path id="Tracé_302" data-name="Tracé 302" d="M240.176,184.655a2.988,2.988,0,0,1-1.744-.512,3.713,3.713,0,0,1-1.177-1.337,8.081,8.081,0,0,1-.707-2.114,20.5,20.5,0,0,1-.373-2.578q-.1-1.289-.124-3-.032-1.345,0-2.69.032-1.6.146-2.843a16.869,16.869,0,0,1,.394-2.41,6.938,6.938,0,0,1,.729-1.922,3.542,3.542,0,0,1,1.177-1.209,3.139,3.139,0,0,1,1.7-.456,3.389,3.389,0,0,1,1.561.344,2.9,2.9,0,0,1,1.123,1.041,7.317,7.317,0,0,1,.745,1.545,10.093,10.093,0,0,1,.448,2.058q.151,1.209.211,2.378t.059,2.69v.48h-5.53V175.8q-.022.593-.005,1.225t.038,1.241a8.387,8.387,0,0,0,.119,1.161,6.658,6.658,0,0,0,.238.969,1.575,1.575,0,0,0,.394.657.843.843,0,0,0,.6.24,1.036,1.036,0,0,0,.713-.248,1.486,1.486,0,0,0,.416-.745,6.438,6.438,0,0,0,.189-.993q.054-.5.065-1.249v-.865h2.743v.817a10.563,10.563,0,0,1-1.091,4.964,3.308,3.308,0,0,1-3.057,1.681m-1.361-12.587h2.743v-1.233q-.011-.817-.065-1.425a9.511,9.511,0,0,0-.189-1.217,2.078,2.078,0,0,0-.416-.929.909.909,0,0,0-1.4.016,2.182,2.182,0,0,0-.421.969,10.288,10.288,0,0,0-.189,1.241q-.054.609-.065,1.457Z" transform="translate(-89.647 -159.761)" fill="#2a2171"></path><rect id="Rectangle_243" data-name="Rectangle 243" width="4.279" height="2.215" transform="translate(164.493 17.221)" fill="#2a2171"></rect><path id="Tracé_303" data-name="Tracé 303" d="M422.234,184.045a5.154,5.154,0,0,1-4.118-1.638,7.286,7.286,0,0,1-1.588-4.477l2.853-.738q.212,4.43,2.853,4.43a1.925,1.925,0,0,0,2.14-2.215,4.111,4.111,0,0,0-.173-1.217,3.273,3.273,0,0,0-.529-1.027,6.971,6.971,0,0,0-.646-.75q-.29-.282-.791-.7l-3.566-2.954a5.739,5.739,0,0,1-1.566-2.025,6.431,6.431,0,0,1-.585-2.8,4.87,4.87,0,0,1,1.371-3.634,4.954,4.954,0,0,1,3.633-1.35,5.731,5.731,0,0,1,3.861,1.229,5.448,5.448,0,0,1,1.767,3.479q.033.242.078.669l-2.853.738q-.011-.2-.056-.588a4.6,4.6,0,0,0-.853-2.256,2.319,2.319,0,0,0-1.945-.848,2.064,2.064,0,0,0-1.582.594,2.325,2.325,0,0,0-.557,1.656,3.64,3.64,0,0,0,1.426,2.919l3.566,2.954a7.226,7.226,0,0,1,2.853,5.711,4.655,4.655,0,0,1-1.354,3.553,5.078,5.078,0,0,1-3.639,1.281" transform="translate(-242.195 -159.232)" fill="#2a2171"></path><path id="Tracé_304" data-name="Tracé 304" d="M506.168,184.833a7.547,7.547,0,0,1-4.592,0,4.358,4.358,0,0,1-1.633-1,4.877,4.877,0,0,1-1.042-1.61,8.854,8.854,0,0,1-.568-2.094,17.434,17.434,0,0,1-.167-2.544V164.3h2.853v13.291q0,.958.039,1.6a8.548,8.548,0,0,0,.206,1.379,3.481,3.481,0,0,0,.463,1.171,2.263,2.263,0,0,0,.836.727,3.118,3.118,0,0,0,2.619,0,2.265,2.265,0,0,0,.836-.727,3.487,3.487,0,0,0,.463-1.171,8.566,8.566,0,0,0,.206-1.379q.039-.646.039-1.6V164.3h2.853v13.291a17.409,17.409,0,0,1-.167,2.544,8.851,8.851,0,0,1-.568,2.094,4.879,4.879,0,0,1-1.042,1.61,4.363,4.363,0,0,1-1.633,1" transform="translate(-311.206 -160.366)" fill="#2a2171"></path><path id="Tracé_305" data-name="Tracé 305" d="M589.319,184.972V164.3h4.993q4.992,0,4.993,5.907a5.3,5.3,0,0,1-1.287,3.848,4.94,4.94,0,0,1-3.706,1.321h-2.14v9.6Zm2.853-11.815h.713a8.938,8.938,0,0,0,1.588-.115,2.89,2.89,0,0,0,1.092-.433,1.747,1.747,0,0,0,.68-.906,4.6,4.6,0,0,0,.206-1.5,8.378,8.378,0,0,0-.156-1.794,2.347,2.347,0,0,0-.574-1.125,2.2,2.2,0,0,0-1.081-.606,7.428,7.428,0,0,0-1.755-.167h-.713Z" transform="translate(-388.251 -160.366)" fill="#2a2171"></path><path id="Tracé_306" data-name="Tracé 306" d="M651.819,184.972,656.1,164.3h2.853l4.279,20.676h-2.853l-1.07-5.169h-3.566l-1.07,5.169Zm4.279-7.384h2.853l-1.427-8.861Z" transform="translate(-441.077 -160.366)" fill="#2a2171"></path><path id="Tracé_307" data-name="Tracé 307" d="M735.915,184.971V164.3h7.846v2.215h-4.993v6.646h3.566v2.215h-3.566v7.384h4.993v2.215Z" transform="translate(-512.157 -160.366)" fill="#2a2171"></path><path id="Tracé_308" data-name="Tracé 308" d="M797.908,184.972V164.3h3.566a7.628,7.628,0,0,1,4.8,1.281q1.616,1.281,1.616,4.257a6.765,6.765,0,0,1-.635,3.092,3.385,3.385,0,0,1-1.861,1.708l3.209,10.338h-2.831l-2.875-9.6h-2.14v9.6Zm2.853-11.815h.713a3.97,3.97,0,0,0,2.675-.779,4.076,4.076,0,0,0,0-5.088,3.969,3.969,0,0,0-2.675-.779h-.713Z" transform="translate(-564.555 -160.366)" fill="#2a2171"></path><path id="Tracé_309" data-name="Tracé 309" d="M880.888,184.045a6.382,6.382,0,0,1-2.58-.473,3.993,3.993,0,0,1-1.711-1.385,6.18,6.18,0,0,1-.925-2.14,12.516,12.516,0,0,1-.29-2.856v-7.5a12.29,12.29,0,0,1,.29-2.838,6,6,0,0,1,.925-2.105,3.884,3.884,0,0,1,1.711-1.344,6.669,6.669,0,0,1,2.58-.45,4.915,4.915,0,0,1,4.212,1.731,8.269,8.269,0,0,1,1.293,5.007v7.5a12.2,12.2,0,0,1-.3,2.832,6.326,6.326,0,0,1-.931,2.146,4.02,4.02,0,0,1-1.711,1.4,6.286,6.286,0,0,1-2.569.479m-2.078-3.357a2.779,2.779,0,0,0,4.157,0,5.341,5.341,0,0,0,.574-2.757v-8.976a5.068,5.068,0,0,0-.568-2.688,2.889,2.889,0,0,0-4.168,0,5.068,5.068,0,0,0-.568,2.688v8.976a5.339,5.339,0,0,0,.574,2.757" transform="translate(-630.037 -159.232)" fill="#2a2171"></path></g></svg> 