<svg id="svg" version="1.1" xmlns="http://www.w3.org/2000/svg" xmlns:xlink="http://www.w3.org/1999/xlink" width="400" height="80.16176140193215" viewBox="0, 0, 400,80.16176140193215"><g id="svgg"><path id="path0" d="M0.000 0.231 C 0.000 0.440,1.248 3.706,1.663 4.583 C 1.904 5.093,4.667 12.139,4.667 12.245 C 4.667 12.295,4.813 12.655,4.992 13.043 C 5.171 13.432,5.510 14.275,5.745 14.917 C 5.980 15.558,6.281 16.308,6.415 16.583 C 6.549 16.858,7.075 18.171,7.585 19.500 C 8.094 20.829,8.582 22.067,8.668 22.250 C 8.754 22.433,8.978 22.996,9.167 23.500 C 9.355 24.004,9.581 24.567,9.668 24.750 C 9.755 24.933,10.060 25.683,10.346 26.417 C 10.632 27.150,11.085 28.313,11.353 29.000 C 11.621 29.688,11.911 30.400,11.998 30.583 C 12.085 30.767,12.575 32.004,13.087 33.333 C 13.599 34.662,14.194 36.162,14.409 36.667 C 14.623 37.171,14.853 37.771,14.918 38.000 C 17.302 46.302,28.952 51.233,37.333 47.488 C 38.461 46.984,38.583 46.920,40.034 46.061 C 40.858 45.573,43.159 43.467,43.945 42.480 C 44.768 41.448,47.000 37.002,47.000 36.394 C 47.000 36.327,47.145 35.967,47.323 35.594 C 47.500 35.222,48.064 33.829,48.577 32.500 C 49.089 31.171,49.617 29.858,49.749 29.583 C 49.881 29.308,50.151 28.633,50.349 28.083 C 50.547 27.533,50.887 26.687,51.104 26.203 C 51.322 25.719,51.500 25.281,51.500 25.229 C 51.500 25.125,53.047 21.225,53.408 20.417 C 53.726 19.707,55.167 16.028,55.167 15.927 C 55.167 15.881,55.347 15.447,55.567 14.963 C 55.787 14.479,56.314 13.183,56.738 12.083 C 57.162 10.983,57.617 9.858,57.749 9.583 C 57.881 9.308,58.151 8.633,58.349 8.083 C 58.547 7.533,58.887 6.687,59.104 6.203 C 59.322 5.719,59.500 5.281,59.500 5.229 C 59.500 5.088,61.146 0.964,61.336 0.627 C 61.680 0.020,61.560 -0.000,57.615 0.000 L 53.731 0.000 53.463 0.625 C 53.315 0.969,51.493 5.525,49.413 10.750 C 47.333 15.975,45.530 20.475,45.407 20.750 C 45.284 21.025,44.760 22.337,44.242 23.667 C 43.723 24.996,43.198 26.308,43.075 26.583 C 42.952 26.858,42.426 28.171,41.907 29.500 C 41.388 30.829,40.831 32.217,40.670 32.583 C 40.508 32.950,40.224 33.662,40.037 34.167 C 38.114 39.371,34.959 41.694,30.127 41.462 C 26.110 41.269,23.252 39.073,21.714 35.000 C 21.489 34.404,21.249 33.842,21.181 33.750 C 21.112 33.658,20.845 32.983,20.587 32.250 C 20.328 31.517,20.065 30.842,20.002 30.750 C 19.939 30.658,19.714 30.096,19.501 29.500 C 19.288 28.904,19.016 28.229,18.897 28.000 C 18.777 27.771,18.263 26.496,17.753 25.167 C 17.244 23.837,16.727 22.563,16.606 22.333 C 16.485 22.104,16.212 21.429,15.999 20.833 C 15.786 20.237,15.562 19.675,15.501 19.583 C 15.440 19.492,15.218 18.929,15.009 18.333 C 14.799 17.737,14.461 16.875,14.256 16.417 C 14.052 15.958,13.748 15.208,13.580 14.750 C 13.413 14.292,13.227 13.842,13.166 13.750 C 13.106 13.658,12.845 12.983,12.587 12.250 C 12.328 11.517,12.063 10.842,11.997 10.750 C 11.931 10.658,11.712 10.133,11.510 9.583 C 11.307 9.033,11.040 8.358,10.916 8.083 C 10.791 7.808,10.269 6.496,9.755 5.167 C 9.241 3.837,8.710 2.525,8.577 2.250 C 8.443 1.975,8.192 1.375,8.020 0.917 L 7.706 0.083 3.853 0.039 C 0.615 0.001,0.000 0.032,0.000 0.231 M74.667 24.417 L 74.667 48.840 78.292 48.795 L 81.917 48.750 81.917 24.417 L 81.917 0.083 78.292 0.038 L 74.667 -0.007 74.667 24.417 M98.000 3.664 L 98.000 7.328 116.875 7.372 L 135.750 7.417 136.791 7.977 C 142.457 11.028,141.494 18.918,135.250 20.604 C 134.587 20.783,131.973 20.830,122.473 20.831 C 108.126 20.834,107.372 20.931,104.093 23.194 C 103.099 23.879,100.667 26.229,100.667 26.503 C 100.667 26.580,100.554 26.755,100.416 26.893 C 99.943 27.367,98.961 29.419,98.532 30.833 L 98.102 32.250 98.041 40.542 L 97.980 48.833 101.573 48.833 L 105.167 48.833 105.168 41.792 C 105.169 31.905,105.586 30.529,109.121 28.738 L 110.083 28.250 120.917 28.204 L 131.750 28.158 132.112 28.954 C 132.310 29.392,132.894 30.837,133.407 32.167 C 133.921 33.496,134.451 34.808,134.585 35.083 C 134.719 35.358,135.020 36.108,135.255 36.750 C 135.490 37.392,135.783 38.142,135.907 38.417 C 136.221 39.114,137.667 42.803,137.667 42.907 C 137.667 42.953,137.877 43.462,138.135 44.037 C 138.392 44.613,138.932 45.927,139.335 46.958 L 140.066 48.833 143.950 48.833 C 146.086 48.833,147.833 48.780,147.833 48.716 C 147.833 48.603,146.550 45.304,146.097 44.250 C 145.979 43.975,145.709 43.262,145.497 42.667 C 145.286 42.071,145.056 41.508,144.987 41.417 C 144.918 41.325,144.667 40.725,144.429 40.083 C 144.191 39.442,143.923 38.767,143.833 38.583 C 143.743 38.400,143.479 37.725,143.247 37.083 C 143.014 36.442,142.752 35.767,142.663 35.583 C 142.575 35.400,142.309 34.725,142.071 34.083 C 141.833 33.442,141.581 32.842,141.511 32.750 C 141.441 32.658,141.172 31.983,140.913 31.250 C 140.655 30.517,140.394 29.842,140.332 29.750 C 140.271 29.658,140.047 29.096,139.835 28.500 C 139.622 27.904,139.387 27.347,139.311 27.262 C 139.232 27.173,139.696 26.821,140.408 26.429 C 145.727 23.502,148.622 17.635,147.672 11.710 C 147.558 10.999,147.419 10.342,147.363 10.250 C 147.306 10.158,147.106 9.633,146.918 9.083 C 145.347 4.493,140.448 0.694,135.417 0.164 C 134.570 0.075,126.098 0.005,115.958 0.003 L 98.000 0.000 98.000 3.664 M188.682 0.191 C 183.041 0.780,176.898 5.562,175.332 10.583 C 175.217 10.950,175.022 11.438,174.899 11.667 C 174.775 11.896,174.253 13.171,173.738 14.500 C 172.208 18.454,171.644 19.878,171.318 20.606 C 171.148 20.985,170.887 21.660,170.739 22.106 C 170.591 22.552,170.330 23.217,170.159 23.583 C 169.988 23.950,169.428 25.337,168.915 26.667 C 168.402 27.996,167.885 29.308,167.766 29.583 C 167.647 29.858,167.452 30.346,167.332 30.667 C 167.213 30.988,166.950 31.625,166.748 32.083 C 166.547 32.542,166.249 33.329,166.086 33.833 C 165.923 34.337,165.731 34.825,165.659 34.917 C 165.587 35.008,165.334 35.608,165.096 36.250 C 164.858 36.892,164.592 37.567,164.504 37.750 C 164.416 37.933,163.926 39.171,163.415 40.500 C 162.904 41.829,162.347 43.217,162.177 43.583 C 162.008 43.950,161.701 44.737,161.497 45.333 C 161.292 45.929,161.069 46.492,161.001 46.583 C 160.879 46.749,160.167 48.605,160.167 48.759 C 160.167 48.803,161.940 48.819,164.108 48.795 L 168.050 48.750 168.446 47.667 C 168.664 47.071,168.912 46.433,168.999 46.250 C 169.085 46.067,169.578 44.829,170.095 43.500 C 170.611 42.171,171.135 40.858,171.258 40.583 C 171.382 40.308,171.907 38.996,172.426 37.667 C 172.945 36.337,173.549 34.854,173.768 34.370 C 173.987 33.886,174.167 33.452,174.167 33.406 C 174.167 33.279,175.650 29.535,176.078 28.583 C 176.283 28.125,176.547 27.450,176.664 27.083 C 176.781 26.717,176.930 26.342,176.995 26.250 C 177.059 26.158,177.285 25.596,177.496 25.000 C 177.708 24.404,177.969 23.767,178.077 23.583 C 178.184 23.400,178.448 22.762,178.662 22.167 C 178.876 21.571,179.180 20.783,179.338 20.417 C 179.495 20.050,179.789 19.301,179.991 18.752 C 180.193 18.203,180.415 17.678,180.484 17.585 C 180.553 17.493,180.745 17.042,180.911 16.583 C 181.539 14.845,182.742 12.064,183.072 11.583 C 184.158 10.007,185.587 8.773,187.000 8.192 C 187.504 7.985,188.097 7.726,188.317 7.616 C 189.591 6.981,193.608 7.438,195.540 8.437 C 197.025 9.205,198.838 11.233,199.550 12.921 L 199.970 13.917 203.902 13.961 C 206.064 13.986,207.833 13.976,207.833 13.940 C 207.833 13.787,206.961 11.570,206.841 11.417 C 206.769 11.325,206.616 10.950,206.501 10.583 C 205.202 6.446,200.967 2.442,196.209 0.854 C 193.964 0.105,191.543 -0.108,188.682 0.191 M241.067 0.292 C 240.886 0.452,240.404 0.845,239.994 1.164 C 239.585 1.484,239.137 1.835,239.000 1.944 C 238.862 2.053,238.262 2.518,237.667 2.976 C 237.071 3.434,236.468 3.908,236.328 4.029 C 236.187 4.151,235.777 4.472,235.417 4.744 C 235.057 5.016,234.634 5.353,234.477 5.494 C 234.321 5.635,233.804 6.050,233.328 6.417 L 232.464 7.083 243.387 7.126 L 254.309 7.169 254.157 7.710 C 254.073 8.007,253.933 8.400,253.844 8.583 C 253.756 8.767,253.491 9.554,253.255 10.333 C 253.020 11.112,252.761 11.900,252.681 12.083 C 252.600 12.267,252.102 13.767,251.574 15.417 C 251.046 17.067,250.562 18.492,250.498 18.583 C 250.433 18.675,250.169 19.462,249.911 20.333 C 249.653 21.204,249.387 21.992,249.321 22.083 C 249.255 22.175,249.016 22.850,248.789 23.583 C 248.277 25.243,244.888 34.963,244.663 35.417 C 244.573 35.600,244.278 36.387,244.009 37.167 C 243.415 38.884,242.791 40.576,242.256 41.917 C 242.036 42.467,241.509 43.817,241.085 44.917 C 240.660 46.017,240.202 47.159,240.067 47.455 C 239.932 47.751,239.717 48.276,239.590 48.621 C 238.611 51.280,236.176 55.846,234.090 58.933 C 231.234 63.160,226.560 67.742,222.631 70.168 C 222.146 70.468,221.563 70.840,221.333 70.996 C 216.773 74.104,208.706 76.409,199.667 77.188 C 194.299 77.651,182.906 76.927,178.167 75.823 C 177.754 75.727,176.442 75.432,175.250 75.168 C 174.058 74.904,172.371 74.498,171.500 74.264 C 169.841 73.820,169.127 73.725,169.833 74.044 C 171.542 74.814,172.339 75.147,172.917 75.329 C 173.283 75.445,173.808 75.638,174.083 75.759 C 174.358 75.879,175.221 76.172,176.000 76.408 C 176.779 76.645,177.567 76.913,177.750 77.003 C 178.441 77.342,183.349 78.589,186.000 79.100 C 189.710 79.814,190.165 79.856,195.151 79.947 C 201.691 80.066,204.789 79.876,210.565 79.002 C 214.688 78.378,221.586 76.559,222.583 75.832 C 222.675 75.765,223.050 75.615,223.417 75.498 C 224.898 75.028,230.870 71.748,231.333 71.150 C 231.379 71.091,231.679 70.863,232.000 70.644 C 233.374 69.706,235.784 67.543,237.306 65.882 C 239.352 63.649,241.682 60.458,243.061 58.000 C 244.199 55.971,246.023 52.136,246.588 50.583 C 246.754 50.125,246.954 49.666,247.031 49.563 C 247.109 49.460,247.357 48.832,247.583 48.167 C 247.810 47.501,248.057 46.873,248.132 46.770 C 248.208 46.667,248.483 45.946,248.744 45.167 C 249.005 44.387,249.271 43.675,249.337 43.583 C 249.402 43.492,249.663 42.779,249.917 42.000 C 250.170 41.221,250.430 40.508,250.494 40.417 C 250.558 40.325,250.778 39.762,250.982 39.167 C 251.186 38.571,251.423 37.933,251.507 37.750 C 251.709 37.311,253.925 30.979,255.095 27.500 C 255.603 25.988,256.088 24.600,256.172 24.417 C 256.256 24.233,257.272 21.196,258.428 17.667 C 259.585 14.137,260.599 11.100,260.682 10.917 C 260.764 10.733,261.050 9.871,261.317 9.000 C 261.584 8.129,262.039 6.667,262.329 5.750 C 263.244 2.857,262.477 0.805,260.250 0.187 C 258.997 -0.161,241.470 -0.065,241.067 0.292 M314.500 24.083 L 314.500 48.167 318.075 48.167 L 321.649 48.167 321.700 38.542 C 321.747 29.396,321.766 28.883,322.075 28.250 C 322.555 27.265,323.592 26.246,324.737 25.634 L 325.750 25.094 337.792 24.940 L 349.833 24.786 349.833 21.583 L 349.833 18.380 338.958 18.265 C 326.085 18.129,323.830 18.288,322.053 19.452 L 321.667 19.705 321.667 9.853 L 321.667 0.000 318.083 0.000 L 314.500 0.000 314.500 24.083 M354.333 24.250 L 354.333 48.500 357.917 48.500 L 361.500 48.500 361.500 24.250 L 361.500 0.000 357.917 0.000 L 354.333 0.000 354.333 24.250 M371.667 34.333 L 371.667 37.333 381.697 37.333 C 391.466 37.333,391.746 37.342,392.406 37.674 C 394.511 38.732,394.604 41.411,392.583 42.794 L 391.917 43.250 385.167 43.342 C 377.921 43.441,378.022 43.429,376.343 44.373 C 372.609 46.474,371.804 48.456,371.709 55.792 L 371.639 61.167 385.819 61.167 L 400.000 61.167 400.000 58.167 L 400.000 55.167 388.833 55.167 L 377.667 55.167 377.667 53.842 C 377.667 52.116,377.928 50.944,378.451 50.322 C 379.270 49.350,379.373 49.333,384.617 49.332 C 393.460 49.329,395.121 48.961,397.531 46.465 C 401.937 41.904,400.217 34.101,394.333 31.951 C 392.795 31.389,391.647 31.333,381.636 31.333 L 371.667 31.333 371.667 34.333 M213.848 34.085 C 213.076 34.676,212.251 35.331,212.014 35.540 C 211.777 35.748,211.200 36.199,210.730 36.541 C 209.351 37.546,209.342 37.603,210.235 39.545 C 210.371 39.841,210.907 41.171,211.425 42.500 C 211.943 43.829,212.468 45.142,212.592 45.417 C 212.715 45.692,213.064 46.554,213.367 47.333 L 213.917 48.750 217.792 48.795 C 220.191 48.822,221.667 48.778,221.667 48.679 C 221.667 48.461,220.811 46.124,220.655 45.917 C 220.586 45.825,220.340 45.225,220.108 44.583 C 219.650 43.317,218.583 40.620,218.328 40.083 C 218.241 39.900,217.975 39.225,217.737 38.583 C 217.500 37.942,217.249 37.342,217.181 37.250 C 217.112 37.158,216.885 36.596,216.675 36.000 C 216.466 35.404,216.164 34.617,216.005 34.250 C 215.846 33.883,215.670 33.452,215.613 33.292 C 215.464 32.869,215.390 32.902,213.848 34.085 " stroke="none" fill="#0404dc" fill-rule="evenodd"></path><path id="path1" d="M221.294 12.824 C 220.355 13.124,219.075 13.849,218.416 14.454 C 218.233 14.623,217.785 14.983,217.420 15.255 C 216.609 15.860,216.322 16.086,215.415 16.833 C 215.026 17.154,213.975 17.979,213.081 18.667 C 212.187 19.354,211.212 20.123,210.914 20.375 L 210.373 20.833 200.228 20.836 C 189.044 20.838,189.399 20.805,189.046 21.880 C 188.722 22.865,189.057 23.653,190.000 24.125 C 191.158 24.704,193.970 26.000,194.070 26.000 C 194.118 26.000,194.650 26.225,195.250 26.500 C 195.850 26.775,196.374 27.000,196.413 27.000 C 196.452 27.000,197.191 27.337,198.057 27.750 C 198.922 28.162,199.713 28.500,199.815 28.500 C 200.306 28.500,200.051 28.790,198.423 30.083 C 198.077 30.358,197.478 30.846,197.093 31.167 C 195.477 32.513,193.631 34.015,192.024 35.290 L 191.464 35.734 186.309 35.172 L 181.155 34.610 180.702 34.947 C 179.691 35.699,180.080 36.987,181.550 37.745 C 181.843 37.896,182.608 38.349,183.250 38.750 C 183.892 39.151,184.796 39.701,185.259 39.973 L 186.101 40.466 188.676 39.884 C 199.148 37.517,197.784 38.102,203.576 33.500 C 204.672 32.629,205.734 31.804,205.937 31.667 C 206.139 31.529,207.109 30.779,208.093 30.000 C 209.077 29.221,210.272 28.283,210.749 27.917 C 211.226 27.550,211.909 27.009,212.267 26.714 C 212.624 26.419,213.636 25.631,214.514 24.964 C 215.393 24.296,216.405 23.512,216.764 23.220 C 217.123 22.929,217.904 22.308,218.500 21.840 C 219.096 21.372,219.697 20.898,219.837 20.786 C 219.976 20.675,220.388 20.364,220.753 20.096 C 221.118 19.828,221.542 19.491,221.695 19.346 C 221.848 19.202,222.284 18.859,222.664 18.585 C 224.807 17.039,226.072 13.868,224.935 12.890 C 224.360 12.396,222.725 12.366,221.294 12.824 " stroke="none" fill="#0404dc" fill-rule="evenodd" opacity="0.5"></path></g></svg>
