<svg id="svg" xmlns="http://www.w3.org/2000/svg" xmlns:xlink="http://www.w3.org/1999/xlink" width="400" height="400" viewBox="0, 0, 400,400" version="1.1"><g id="svgg"><path id="path0" d="M98.224 110.833 C 104.063 125.469,109.940 140.194,111.286 143.556 L 113.732 149.667 131.977 149.724 C 144.097 149.761,150.222 149.705,150.222 149.557 C 150.222 149.434,144.362 134.683,137.200 116.778 L 124.178 84.222 105.894 84.222 L 87.609 84.222 98.224 110.833 M340.921 90.389 C 327.089 125.299,274.873 255.595,274.093 257.147 C 257.352 290.481,210.145 290.395,193.391 257.000 C 192.900 256.022,191.277 252.172,189.785 248.444 C 188.293 244.717,186.991 241.583,186.893 241.480 C 186.747 241.326,160.864 261.328,159.457 262.682 C 158.942 263.178,160.408 267.173,163.121 272.667 C 189.079 325.226,263.472 331.087,298.272 283.315 C 302.220 277.895,305.533 271.675,308.677 263.778 C 312.608 253.901,377.458 90.574,378.668 87.500 L 379.959 84.222 361.662 84.222 L 343.365 84.222 340.921 90.389 " stroke="none" fill="#0404fc" fill-rule="evenodd"></path><path id="path1" d="M222.222 143.248 C 214.821 144.579,209.943 146.602,204.947 150.415 C 202.248 152.476,182.927 167.644,169.378 178.340 L 163.756 182.778 115.596 182.889 L 67.435 183.000 65.951 183.730 C 60.653 186.339,59.968 194.046,64.745 197.306 C 65.252 197.652,76.867 202.909,90.556 208.990 C 104.244 215.070,115.474 220.072,115.509 220.105 C 115.724 220.308,73.500 254.222,73.033 254.222 C 72.741 254.222,62.314 253.015,49.862 251.540 C 26.300 248.749,25.096 248.654,23.444 249.450 C 19.711 251.251,18.752 256.737,21.661 259.646 C 22.234 260.219,46.933 275.553,47.848 275.904 C 48.277 276.069,97.484 264.557,100.222 263.651 C 107.558 261.224,105.104 263.006,156.490 222.778 C 217.332 175.147,223.574 170.251,224.306 169.583 C 231.205 163.297,235.851 152.874,234.076 147.666 C 232.919 144.268,227.592 142.282,222.222 143.248 " stroke="none" fill="#0404fc" fill-rule="evenodd" opacity="0.5"></path></g></svg>
