<svg id="svg" xmlns="http://www.w3.org/2000/svg" xmlns:xlink="http://www.w3.org/1999/xlink" width="400" height="399.2551210428305" viewBox="0, 0, 400,399.2551210428305" version="1.1"><g id="svgg"><path id="path0" d="M22.478 0.478 C 21.324 0.688,20.380 1.030,20.380 1.237 C 20.380 1.444,19.930 1.501,19.381 1.363 C 18.765 1.208,18.382 1.282,18.382 1.555 C 18.382 1.799,18.067 2.001,17.682 2.004 C 17.085 2.009,17.070 2.067,17.582 2.398 C 18.146 2.762,17.021 3.042,15.842 2.831 C 15.654 2.797,15.278 2.954,15.006 3.179 C 14.734 3.405,14.394 3.471,14.249 3.327 C 14.104 3.182,13.986 3.273,13.986 3.530 C 13.986 3.786,14.166 3.996,14.386 3.996 C 14.605 3.996,14.785 4.170,14.785 4.383 C 14.785 4.596,14.507 4.663,14.167 4.533 C 13.813 4.397,13.287 4.617,12.938 5.045 C 12.603 5.457,12.457 5.546,12.613 5.243 C 12.791 4.899,12.716 4.752,12.413 4.853 C 12.146 4.942,11.954 5.166,11.987 5.352 C 12.019 5.537,11.484 6.030,10.798 6.447 C 10.112 6.864,9.660 7.382,9.794 7.599 C 9.928 7.815,9.656 7.992,9.191 7.992 C 8.724 7.992,8.456 8.173,8.593 8.395 C 8.730 8.617,8.482 8.931,8.042 9.094 C 7.601 9.257,7.185 9.570,7.117 9.790 C 7.049 10.010,6.845 10.140,6.664 10.080 C 6.482 10.020,6.426 10.118,6.537 10.299 C 6.649 10.480,6.575 10.889,6.373 11.208 C 6.095 11.648,6.005 11.661,6.000 11.260 C 5.992 10.543,4.800 11.716,4.782 12.459 C 4.776 12.749,4.512 13.328,4.196 13.745 C 3.880 14.162,3.720 14.661,3.839 14.854 C 3.958 15.047,3.817 15.155,3.526 15.095 C 3.190 15.025,2.956 15.457,2.884 16.284 C 2.822 16.998,2.739 17.929,2.699 18.352 C 2.659 18.776,2.485 19.035,2.312 18.928 C 2.139 18.821,1.998 18.935,1.998 19.181 C 1.998 19.427,1.806 19.509,1.572 19.364 C 1.337 19.219,1.179 19.343,1.219 19.640 C 1.378 20.796,1.180 21.614,0.799 21.379 C 0.226 21.024,0.305 22.123,0.896 22.714 C 1.291 23.109,1.282 23.278,0.853 23.543 C 0.515 23.752,0.415 24.193,0.584 24.725 C 0.743 25.229,0.680 25.574,0.427 25.574 C 0.125 25.574,0.000 76.583,0.000 199.800 C 0.000 323.017,0.125 374.026,0.427 374.026 C 0.680 374.026,0.743 374.371,0.584 374.875 C 0.415 375.407,0.515 375.848,0.853 376.057 C 1.282 376.322,1.291 376.491,0.896 376.886 C 0.305 377.477,0.226 378.576,0.799 378.222 C 1.180 377.986,1.378 378.804,1.219 379.960 C 1.179 380.257,1.337 380.381,1.572 380.236 C 1.806 380.091,1.998 380.174,1.998 380.420 C 1.998 380.665,2.139 380.779,2.312 380.672 C 2.485 380.566,2.659 380.825,2.699 381.248 C 2.739 381.672,2.822 382.602,2.884 383.317 C 2.964 384.230,3.175 384.576,3.596 384.482 C 3.926 384.409,4.067 384.478,3.910 384.635 C 3.474 385.071,4.340 386.414,5.058 386.414 C 5.571 386.414,5.599 386.526,5.204 387.002 C 4.814 387.472,4.844 387.718,5.355 388.229 C 5.830 388.704,5.996 388.733,6.000 388.340 C 6.005 387.939,6.095 387.952,6.373 388.393 C 6.575 388.712,6.649 389.121,6.537 389.302 C 6.426 389.482,6.509 389.581,6.724 389.520 C 6.938 389.460,7.086 389.570,7.053 389.764 C 7.020 389.959,7.409 390.272,7.918 390.460 C 8.426 390.648,8.730 390.984,8.593 391.205 C 8.457 391.427,8.715 391.608,9.167 391.608 C 9.624 391.608,9.990 391.869,9.990 392.195 C 9.990 392.518,10.430 393.012,10.968 393.294 C 11.505 393.576,11.941 393.982,11.937 394.196 C 11.932 394.410,12.146 394.658,12.413 394.747 C 12.721 394.850,12.782 394.721,12.581 394.396 C 12.373 394.059,12.423 393.981,12.725 394.168 C 12.979 394.324,13.187 394.706,13.187 395.016 C 13.187 395.334,13.430 395.486,13.745 395.365 C 14.052 395.247,14.577 395.542,14.912 396.020 C 15.247 396.499,15.702 396.777,15.924 396.640 C 16.147 396.503,16.449 396.586,16.596 396.824 C 16.744 397.062,17.132 397.154,17.460 397.029 C 17.842 396.882,18.134 397.098,18.273 397.630 C 18.441 398.273,18.704 398.407,19.435 398.224 C 19.955 398.093,20.380 398.140,20.380 398.327 C 20.380 399.505,26.978 399.550,200.000 399.557 C 371.359 399.564,379.138 399.512,379.554 398.369 C 379.627 398.168,380.097 398.106,380.598 398.232 C 381.293 398.406,381.561 398.263,381.727 397.630 C 381.866 397.098,382.158 396.882,382.540 397.029 C 382.868 397.154,383.250 397.073,383.389 396.848 C 383.528 396.623,383.888 396.533,384.188 396.648 C 384.489 396.763,384.855 396.663,385.002 396.424 C 385.149 396.186,385.437 396.094,385.642 396.221 C 385.847 396.347,386.014 396.260,386.014 396.028 C 386.014 395.795,385.834 395.604,385.614 395.604 C 385.395 395.604,385.215 395.430,385.215 395.217 C 385.215 395.004,385.493 394.937,385.833 395.068 C 386.187 395.203,386.713 394.984,387.062 394.556 C 387.397 394.143,387.543 394.054,387.387 394.358 C 387.209 394.701,387.284 394.848,387.587 394.747 C 387.854 394.658,388.013 394.439,387.942 394.259 C 387.871 394.080,388.307 393.674,388.911 393.357 C 389.515 393.041,390.010 392.518,390.010 392.195 C 390.010 391.869,390.376 391.608,390.833 391.608 C 391.285 391.608,391.543 391.427,391.407 391.205 C 391.270 390.984,391.542 390.660,392.012 390.486 C 392.482 390.312,392.898 389.999,392.937 389.790 C 392.975 389.582,393.155 389.460,393.336 389.520 C 393.518 389.581,393.574 389.482,393.463 389.302 C 393.351 389.121,393.425 388.712,393.627 388.393 C 393.905 387.952,393.995 387.939,394.000 388.340 C 394.004 388.733,394.170 388.704,394.645 388.229 C 395.156 387.718,395.186 387.472,394.796 387.002 C 394.401 386.526,394.429 386.414,394.942 386.414 C 395.660 386.414,396.526 385.071,396.090 384.635 C 395.933 384.478,396.074 384.409,396.404 384.482 C 396.825 384.576,397.019 384.259,397.057 383.417 C 397.122 381.972,398.152 379.915,398.605 380.326 C 398.783 380.487,398.816 380.305,398.678 379.920 C 398.384 379.101,398.742 377.939,399.201 378.222 C 399.774 378.576,399.785 375.229,399.785 199.800 C 399.785 24.371,399.774 21.024,399.201 21.378 C 398.745 21.660,398.382 20.497,398.682 19.715 C 398.853 19.268,398.784 19.144,398.470 19.339 C 398.025 19.613,397.813 18.907,397.972 17.682 C 398.008 17.408,397.861 17.183,397.646 17.183 C 397.432 17.183,397.199 16.688,397.129 16.084 C 397.054 15.427,396.790 15.029,396.474 15.095 C 396.183 15.155,396.054 15.027,396.189 14.810 C 396.323 14.592,396.100 14.082,395.694 13.676 C 395.288 13.270,395.026 12.725,395.112 12.466 C 395.198 12.207,394.985 11.711,394.638 11.364 C 394.165 10.891,394.004 10.865,394.000 11.260 C 393.995 11.661,393.905 11.648,393.627 11.208 C 393.425 10.889,393.365 10.456,393.495 10.247 C 393.624 10.038,393.533 9.988,393.292 10.137 C 392.785 10.451,391.134 8.836,391.446 8.331 C 391.561 8.145,391.275 7.992,390.809 7.992 C 390.344 7.992,390.072 7.815,390.206 7.599 C 390.340 7.382,389.927 6.888,389.289 6.500 C 388.651 6.112,388.058 5.614,387.971 5.395 C 387.883 5.175,387.587 5.020,387.313 5.051 C 387.038 5.081,386.813 4.862,386.813 4.564 C 386.813 4.263,386.564 4.117,386.255 4.235 C 385.948 4.353,385.423 4.058,385.088 3.580 C 384.753 3.102,384.298 2.823,384.076 2.960 C 383.853 3.098,383.551 3.015,383.404 2.776 C 383.256 2.538,382.868 2.446,382.540 2.572 C 382.158 2.718,381.866 2.503,381.727 1.970 C 381.559 1.327,381.296 1.193,380.565 1.377 C 380.045 1.507,379.620 1.460,379.620 1.273 C 379.620 0.051,29.104 -0.729,22.478 0.478 M85.586 56.139 C 85.955 56.136,86.390 56.001,86.552 55.839 C 87.051 55.340,91.708 55.507,92.278 56.044 C 92.701 56.444,92.844 56.444,92.990 56.044 C 93.091 55.769,93.428 55.544,93.740 55.544 C 94.051 55.544,94.308 55.769,94.312 56.044 C 94.317 56.436,94.385 56.438,94.630 56.053 C 94.859 55.692,95.092 55.772,95.511 56.353 C 96.045 57.093,97.387 57.526,96.948 56.816 C 96.837 56.636,97.263 56.564,97.895 56.657 C 98.681 56.772,98.976 57.003,98.828 57.388 C 98.688 57.754,98.810 57.875,99.177 57.734 C 99.488 57.615,100.446 57.811,101.306 58.171 C 102.459 58.653,102.911 58.699,103.028 58.347 C 103.117 58.081,103.399 58.283,103.666 58.805 C 103.987 59.431,104.442 59.707,105.043 59.641 C 105.537 59.586,105.838 59.708,105.712 59.912 C 105.586 60.116,105.829 60.392,106.251 60.526 C 106.673 60.660,107.119 61.030,107.241 61.347 C 107.377 61.701,107.725 61.824,108.142 61.664 C 108.603 61.487,108.729 61.554,108.533 61.870 C 108.359 62.152,108.497 62.338,108.880 62.338 C 109.230 62.338,109.613 62.591,109.732 62.901 C 109.851 63.211,110.378 63.572,110.904 63.704 C 111.541 63.864,111.784 64.143,111.631 64.540 C 111.487 64.915,111.640 65.135,112.045 65.135 C 112.398 65.135,112.642 65.360,112.587 65.634 C 112.532 65.909,112.717 66.087,112.998 66.030 C 113.279 65.973,113.613 66.197,113.739 66.527 C 113.866 66.858,114.131 67.029,114.328 66.907 C 114.524 66.786,114.685 67.076,114.685 67.552 C 114.685 68.190,114.857 68.351,115.341 68.165 C 115.915 67.945,115.927 68.000,115.441 68.599 C 115.073 69.053,115.054 69.183,115.385 68.984 C 115.659 68.819,115.884 68.875,115.884 69.107 C 115.884 69.340,116.143 69.530,116.460 69.530 C 116.777 69.530,117.164 69.738,117.321 69.992 C 117.498 70.278,117.430 70.345,117.145 70.168 C 116.478 69.756,116.578 70.350,117.313 71.162 C 117.659 71.545,117.987 72.158,118.040 72.524 C 118.094 72.891,118.390 73.346,118.698 73.537 C 119.006 73.727,119.147 73.993,119.012 74.128 C 118.877 74.264,119.189 74.797,119.706 75.314 C 120.282 75.890,120.584 76.582,120.484 77.099 C 120.394 77.565,120.491 77.839,120.700 77.709 C 120.909 77.581,121.079 78.010,121.079 78.664 C 121.079 79.318,121.279 79.920,121.523 80.002 C 121.768 80.083,121.985 80.805,122.007 81.605 C 122.028 82.406,122.210 83.029,122.412 82.989 C 122.613 82.949,122.841 84.356,122.917 86.114 C 122.993 87.872,123.153 90.267,123.272 91.436 C 123.426 92.932,123.359 93.481,123.049 93.289 C 122.761 93.111,122.634 93.414,122.685 94.161 C 122.810 96.018,122.715 96.373,122.178 96.051 C 121.887 95.876,121.928 96.065,122.278 96.503 C 122.607 96.918,122.675 97.135,122.428 96.987 C 122.141 96.815,121.978 97.094,121.978 97.755 C 121.978 98.325,121.766 98.923,121.507 99.083 C 121.249 99.243,121.068 99.537,121.105 99.737 C 121.290 100.720,121.034 101.917,120.684 101.701 C 120.465 101.566,120.386 101.711,120.507 102.026 C 120.631 102.348,120.417 102.712,120.014 102.867 C 119.541 103.049,119.455 103.234,119.757 103.421 C 120.082 103.622,120.035 103.928,119.592 104.498 C 118.974 105.293,118.974 105.293,119.251 104.496 C 119.440 103.951,119.397 103.826,119.118 104.102 C 118.893 104.326,118.665 105.078,118.612 105.773 C 118.559 106.469,118.385 106.957,118.226 106.859 C 118.067 106.761,117.824 106.863,117.686 107.086 C 117.548 107.310,117.671 107.495,117.958 107.499 C 118.349 107.503,118.335 107.598,117.901 107.872 C 117.582 108.074,117.147 108.131,116.934 108.000 C 116.715 107.865,116.653 108.036,116.790 108.394 C 117.087 109.167,115.843 110.689,114.915 110.689 C 114.543 110.689,114.353 110.874,114.493 111.101 C 114.632 111.327,114.379 111.911,113.930 112.399 C 113.481 112.887,112.734 113.736,112.270 114.286 C 111.807 114.835,111.542 115.060,111.681 114.785 C 112.102 113.957,111.134 114.225,110.597 115.085 C 110.322 115.524,109.948 115.884,109.765 115.884 C 109.583 115.884,109.164 116.154,108.834 116.484 C 108.372 116.945,108.356 117.084,108.763 117.089 C 109.164 117.094,109.151 117.184,108.710 117.462 C 108.391 117.664,107.999 117.748,107.839 117.649 C 107.679 117.550,107.435 117.652,107.297 117.876 C 107.159 118.099,106.763 118.282,106.417 118.282 C 106.071 118.282,105.462 118.658,105.063 119.118 C 104.664 119.577,104.152 119.839,103.926 119.699 C 103.377 119.359,101.812 120.217,102.107 120.695 C 102.235 120.901,102.078 120.970,101.759 120.847 C 101.441 120.725,101.071 120.800,100.939 121.014 C 100.807 121.228,100.331 121.307,99.883 121.190 C 99.326 121.045,99.104 121.152,99.184 121.527 C 99.266 121.912,98.880 122.078,97.902 122.078 C 97.133 122.078,96.234 122.253,95.904 122.467 C 95.574 122.681,95.035 122.861,94.705 122.867 C 94.376 122.872,94.145 123.083,94.192 123.336 C 94.243 123.607,93.959 123.711,93.497 123.590 C 93.068 123.478,92.815 123.226,92.935 123.031 C 93.056 122.837,92.874 122.677,92.531 122.677 C 92.188 122.677,91.908 122.857,91.908 123.077 C 91.908 123.298,90.850 123.477,89.534 123.477 C 88.228 123.477,87.049 123.297,86.913 123.077 C 86.510 122.425,85.514 122.622,85.514 123.353 C 85.514 123.965,85.467 123.969,85.015 123.395 C 84.569 122.830,83.360 122.470,80.919 122.175 C 80.480 122.121,79.976 121.853,79.800 121.578 C 79.625 121.304,79.130 121.079,78.701 121.079 C 78.273 121.079,77.919 120.854,77.916 120.579 C 77.912 120.246,77.781 120.280,77.522 120.679 C 77.277 121.058,77.133 121.100,77.129 120.792 C 77.126 120.524,76.855 120.408,76.527 120.534 C 76.181 120.666,75.823 120.481,75.673 120.092 C 75.489 119.610,75.140 119.490,74.438 119.667 C 73.838 119.817,73.554 119.759,73.704 119.517 C 73.838 119.299,73.562 118.914,73.090 118.662 C 72.395 118.290,72.285 118.305,72.514 118.741 C 72.669 119.038,72.406 118.831,71.928 118.282 C 71.450 117.732,71.176 117.507,71.318 117.782 C 71.460 118.057,71.397 118.282,71.179 118.282 C 70.961 118.282,70.669 117.922,70.529 117.483 C 70.390 117.043,70.002 116.683,69.666 116.683 C 68.779 116.683,67.240 115.362,67.438 114.769 C 67.531 114.489,67.456 114.288,67.270 114.321 C 66.410 114.473,65.934 114.232,65.934 113.644 C 65.934 113.247,65.713 113.086,65.355 113.224 C 64.947 113.380,64.850 113.254,65.025 112.797 C 65.209 112.318,65.105 112.214,64.625 112.398 C 64.190 112.565,64.043 112.473,64.179 112.119 C 64.291 111.829,64.105 111.485,63.766 111.355 C 63.410 111.219,63.250 110.860,63.386 110.505 C 63.553 110.070,63.372 109.890,62.767 109.890 C 62.298 109.890,61.794 109.575,61.648 109.191 C 61.503 108.806,61.136 108.241,60.833 107.935 C 60.494 107.592,60.378 106.994,60.531 106.384 C 60.748 105.522,60.669 105.420,59.938 105.611 C 59.245 105.792,59.179 105.730,59.567 105.263 C 59.871 104.896,59.889 104.695,59.616 104.695 C 59.384 104.695,59.080 104.333,58.939 103.890 C 58.799 103.447,58.489 103.206,58.251 103.353 C 57.954 103.536,57.900 103.192,58.079 102.260 C 58.263 101.302,58.224 101.077,57.948 101.499 C 57.658 101.941,57.553 101.646,57.549 100.376 C 57.545 99.408,57.378 98.755,57.168 98.886 C 56.958 99.016,56.871 98.686,56.971 98.136 C 57.069 97.596,56.968 97.042,56.746 96.905 C 56.525 96.768,56.344 96.138,56.344 95.504 C 56.344 94.871,56.164 94.242,55.944 94.106 C 55.724 93.970,55.547 93.645,55.551 93.383 C 55.554 93.094,55.714 93.143,55.957 93.506 C 56.250 93.946,56.334 93.650,56.271 92.395 C 56.211 91.177,56.036 90.742,55.665 90.884 C 55.299 91.025,55.145 90.670,55.145 89.685 C 55.145 88.802,55.369 88.201,55.753 88.053 C 56.228 87.871,56.327 87.309,56.206 85.491 C 56.088 83.732,56.190 83.108,56.622 82.942 C 56.936 82.822,57.091 82.557,56.966 82.354 C 56.840 82.151,56.918 81.510,57.139 80.930 C 57.404 80.232,57.405 79.958,57.142 80.121 C 56.923 80.256,56.743 80.176,56.743 79.944 C 56.743 79.711,56.923 79.520,57.143 79.520 C 57.363 79.520,57.542 79.161,57.542 78.721 C 57.542 78.282,57.717 77.922,57.930 77.922 C 58.142 77.922,58.224 77.681,58.111 77.387 C 57.998 77.092,58.184 76.621,58.523 76.339 C 58.863 76.057,59.141 75.499,59.141 75.100 C 59.141 74.700,59.324 74.260,59.547 74.122 C 59.770 73.984,59.831 73.673,59.681 73.431 C 59.505 73.145,59.650 73.083,60.095 73.254 C 60.472 73.399,60.685 73.363,60.569 73.174 C 60.452 72.986,60.802 72.314,61.347 71.680 C 61.891 71.047,62.337 70.299,62.337 70.017 C 62.337 69.736,62.607 69.402,62.937 69.275 C 63.267 69.149,63.536 68.784,63.536 68.465 C 63.536 68.146,63.707 67.990,63.915 68.119 C 64.123 68.248,64.224 67.989,64.138 67.543 C 64.041 67.039,64.195 66.733,64.546 66.733 C 64.909 66.733,65.018 66.495,64.853 66.064 C 64.659 65.558,64.759 65.458,65.265 65.652 C 65.745 65.836,65.934 65.696,65.934 65.154 C 65.934 64.637,66.319 64.315,67.160 64.130 C 67.834 63.982,68.482 63.609,68.600 63.301 C 68.718 62.994,68.957 62.830,69.131 62.937 C 69.305 63.044,69.556 62.849,69.689 62.502 C 69.822 62.155,70.155 61.948,70.430 62.042 C 70.995 62.235,72.412 60.800,72.122 60.330 C 71.843 59.879,73.123 59.485,73.982 59.758 C 74.391 59.888,74.725 59.802,74.725 59.567 C 74.725 59.333,75.001 59.141,75.337 59.141 C 75.674 59.141,76.057 58.861,76.188 58.518 C 76.323 58.166,76.686 57.996,77.025 58.126 C 77.355 58.252,77.865 58.038,78.160 57.649 C 78.455 57.261,78.702 57.138,78.709 57.376 C 78.727 57.998,79.920 57.912,79.920 57.289 C 79.920 57.002,80.172 56.865,80.479 56.983 C 80.787 57.101,81.157 57.005,81.303 56.769 C 81.489 56.467,81.812 56.473,82.403 56.789 C 83.102 57.163,83.199 57.134,82.998 56.610 C 82.838 56.192,82.937 56.053,83.297 56.191 C 83.593 56.305,83.966 56.187,84.125 55.929 C 84.285 55.670,84.528 55.613,84.665 55.801 C 84.803 55.990,85.217 56.142,85.586 56.139 M276.890 146.166 C 277.307 146.780,280.120 146.612,280.120 145.973 C 280.120 145.632,280.405 145.458,280.819 145.549 C 281.204 145.633,281.474 145.916,281.419 146.178 C 281.364 146.439,281.689 146.653,282.141 146.653 C 282.697 146.653,282.864 146.491,282.656 146.154 C 282.487 145.879,282.836 145.973,283.432 146.363 C 284.028 146.753,284.515 146.881,284.515 146.648 C 284.515 146.356,284.769 146.362,285.337 146.665 C 285.788 146.907,286.552 147.057,287.035 146.999 C 287.517 146.941,288.338 147.127,288.859 147.413 C 289.380 147.698,289.708 147.773,289.588 147.578 C 289.468 147.383,289.703 147.224,290.110 147.224 C 290.517 147.224,290.763 147.365,290.656 147.538 C 290.550 147.711,290.922 147.852,291.485 147.852 C 292.047 147.852,292.507 148.020,292.507 148.225 C 292.507 148.430,293.007 148.584,293.617 148.566 C 294.927 148.529,297.702 149.466,297.702 149.946 C 297.702 150.129,298.197 150.228,298.801 150.165 C 299.564 150.085,299.864 150.218,299.784 150.599 C 299.700 150.992,299.965 151.092,300.714 150.948 C 301.385 150.820,301.837 150.946,301.972 151.298 C 302.088 151.601,302.682 151.848,303.291 151.848 C 303.899 151.848,304.622 152.118,304.895 152.448 C 305.485 153.158,306.272 153.259,305.846 152.569 C 305.683 152.306,306.122 152.498,306.821 152.996 C 307.520 153.493,308.092 154.068,308.092 154.273 C 308.092 154.478,308.227 154.624,308.392 154.598 C 309.345 154.448,310.490 154.704,310.490 155.069 C 310.490 155.301,310.282 155.363,310.028 155.207 C 309.749 155.034,309.675 155.097,309.841 155.365 C 309.992 155.610,310.379 155.708,310.702 155.584 C 311.025 155.460,311.289 155.558,311.289 155.801 C 311.289 156.045,311.548 156.244,311.865 156.244 C 312.181 156.244,312.569 156.451,312.725 156.705 C 312.919 157.018,312.830 157.058,312.449 156.828 C 311.971 156.540,311.969 156.590,312.437 157.166 C 313.006 157.868,313.908 158.125,313.504 157.470 C 313.377 157.266,313.461 156.982,313.690 156.841 C 313.919 156.700,314.056 156.822,313.996 157.113 C 313.936 157.404,314.124 157.593,314.415 157.533 C 314.706 157.472,314.849 157.578,314.732 157.767 C 314.615 157.957,314.804 158.519,315.153 159.017 C 315.617 159.679,315.869 159.788,316.096 159.421 C 316.311 159.074,316.754 159.420,317.543 160.553 C 318.169 161.451,319.041 162.246,319.481 162.321 C 319.920 162.395,320.235 162.677,320.180 162.947 C 320.125 163.216,320.270 163.437,320.503 163.437 C 320.736 163.437,320.849 163.571,320.756 163.736 C 320.662 163.901,321.011 164.447,321.531 164.949 C 322.371 165.760,322.481 165.782,322.509 165.149 C 322.529 164.708,322.619 164.631,322.747 164.949 C 322.860 165.231,322.740 165.718,322.480 166.031 C 322.096 166.494,322.199 166.649,323.028 166.857 C 323.590 166.998,324.010 167.320,323.963 167.572 C 323.915 167.825,324.114 167.983,324.405 167.922 C 324.696 167.862,324.835 167.973,324.714 168.168 C 324.593 168.364,324.850 168.846,325.284 169.239 C 325.719 169.632,326.074 170.189,326.074 170.476 C 326.074 170.763,326.457 171.354,326.924 171.790 C 327.422 172.254,327.675 172.842,327.535 173.208 C 327.389 173.588,327.605 174.027,328.083 174.325 C 328.517 174.596,328.871 175.134,328.871 175.521 C 328.871 175.907,329.051 176.224,329.271 176.224 C 329.491 176.224,329.670 176.494,329.670 176.823 C 329.670 177.153,329.821 177.423,330.006 177.423 C 330.306 177.423,330.756 178.610,331.483 181.324 C 331.617 181.822,331.893 182.126,332.097 182.000 C 332.301 181.874,332.468 181.961,332.468 182.194 C 332.468 182.427,332.253 182.617,331.992 182.617 C 331.730 182.617,331.847 182.860,332.252 183.156 C 332.722 183.499,332.871 183.887,332.663 184.223 C 332.428 184.602,332.517 184.682,332.979 184.505 C 333.505 184.303,333.597 184.506,333.488 185.632 C 333.414 186.388,333.515 186.907,333.710 186.786 C 334.086 186.554,334.204 187.029,334.140 188.524 C 334.118 189.026,334.273 189.330,334.483 189.200 C 334.693 189.070,334.893 189.469,334.926 190.086 C 335.012 191.666,335.054 191.840,335.732 193.407 C 336.159 194.392,336.209 194.892,335.901 195.099 C 335.591 195.308,335.596 195.394,335.920 195.398 C 336.435 195.405,336.874 197.438,337.000 200.400 C 337.047 201.499,337.321 202.821,337.609 203.338 C 337.898 203.855,338.044 204.619,337.935 205.036 C 337.826 205.454,337.900 205.695,338.099 205.571 C 338.298 205.448,338.462 205.527,338.462 205.747 C 338.462 205.967,338.273 206.263,338.043 206.406 C 337.757 206.582,337.777 206.850,338.105 207.244 C 338.370 207.563,338.625 208.941,338.672 210.306 C 338.720 211.671,338.888 213.147,339.047 213.586 C 339.289 214.254,339.258 214.287,338.861 213.786 C 338.463 213.284,338.430 213.316,338.656 213.986 C 339.141 215.422,339.703 219.493,339.492 220.042 C 339.379 220.338,339.460 220.579,339.673 220.579 C 340.133 220.579,340.201 224.049,339.745 224.242 C 339.571 224.316,339.527 226.399,339.645 228.872 C 339.768 231.447,339.706 233.368,339.499 233.367 C 339.300 233.367,339.434 233.695,339.798 234.097 C 340.759 235.159,340.819 271.728,339.860 271.728 C 339.236 271.728,339.039 272.344,339.560 272.665 C 339.725 272.767,339.813 287.974,339.756 306.458 L 339.651 340.065 310.785 339.963 L 281.918 339.860 281.848 286.523 C 281.798 248.948,281.650 233.144,281.348 233.043 C 280.682 232.822,280.842 231.369,281.533 231.369 C 282.206 231.369,281.653 229.874,280.759 229.277 C 280.452 229.072,280.467 228.981,280.807 228.977 C 281.419 228.969,281.376 226.095,280.757 225.680 C 280.456 225.478,280.475 225.385,280.819 225.381 C 281.094 225.377,281.319 225.184,281.319 224.951 C 281.319 224.719,281.139 224.639,280.919 224.775 C 280.699 224.911,280.502 224.787,280.480 224.499 C 280.361 222.927,280.184 221.903,279.925 221.279 C 279.747 220.851,279.812 220.579,280.093 220.579 C 280.345 220.579,280.184 220.186,279.735 219.704 C 279.115 219.039,279.040 218.750,279.420 218.498 C 279.808 218.241,279.780 218.056,279.295 217.675 C 278.952 217.404,278.699 216.695,278.733 216.099 C 278.768 215.503,278.644 215.109,278.459 215.223 C 278.274 215.338,278.122 215.062,278.122 214.609 C 278.122 214.156,277.897 213.783,277.622 213.780 C 277.289 213.776,277.323 213.645,277.722 213.387 C 278.122 213.128,278.155 212.997,277.822 212.993 C 277.547 212.990,277.323 212.751,277.323 212.463 C 277.323 212.175,276.963 211.553,276.523 211.081 C 275.695 210.192,275.454 209.576,276.087 209.967 C 276.286 210.090,276.241 209.741,275.987 209.191 C 275.732 208.641,275.222 208.093,274.852 207.973 C 274.425 207.835,274.238 207.450,274.340 206.920 C 274.428 206.461,274.387 206.199,274.249 206.337 C 274.111 206.475,273.745 206.227,273.435 205.785 C 273.126 205.343,272.718 205.077,272.529 205.194 C 272.340 205.311,272.070 205.041,271.928 204.595 C 271.787 204.149,271.501 203.890,271.292 204.018 C 271.084 204.147,270.681 203.697,270.395 203.019 C 270.110 202.340,269.754 201.908,269.604 202.058 C 269.454 202.208,269.331 202.031,269.331 201.665 C 269.331 201.299,269.196 201.032,269.031 201.072 C 268.284 201.253,265.226 199.980,264.740 199.286 C 264.443 198.862,264.006 198.635,263.768 198.781 C 263.521 198.935,263.334 198.740,263.331 198.325 C 263.325 197.712,263.265 197.694,262.937 198.202 C 262.724 198.531,262.547 198.601,262.544 198.356 C 262.540 198.112,262.133 197.936,261.638 197.965 C 261.144 197.995,260.520 197.746,260.252 197.411 C 259.902 196.974,259.762 196.947,259.753 197.317 C 259.743 197.722,259.555 197.731,258.861 197.360 C 257.855 196.821,243.357 196.539,243.357 197.059 C 243.357 197.234,243.069 197.267,242.717 197.132 C 242.365 196.997,241.929 197.126,241.748 197.419 C 241.477 197.857,241.309 197.859,240.790 197.428 C 240.368 197.078,240.160 197.053,240.160 197.354 C 240.160 197.600,240.025 197.781,239.860 197.755 C 238.524 197.544,236.578 197.877,236.663 198.302 C 236.722 198.596,236.385 198.781,235.841 198.751 C 235.195 198.717,234.984 198.873,235.137 199.272 C 235.257 199.585,235.190 199.740,234.988 199.615 C 234.786 199.490,234.500 199.583,234.353 199.821 C 234.206 200.059,233.824 200.154,233.505 200.032 C 233.186 199.909,233.013 199.951,233.120 200.124 C 233.227 200.298,232.948 200.669,232.500 200.949 C 232.051 201.229,231.796 201.277,231.933 201.056 C 232.069 200.835,231.998 200.542,231.775 200.404 C 231.551 200.266,231.369 200.427,231.369 200.763 C 231.369 201.099,231.138 201.285,230.855 201.176 C 230.180 200.917,228.476 202.519,228.825 203.084 C 229.001 203.369,228.810 203.448,228.279 203.309 C 227.423 203.085,225.166 204.653,225.648 205.135 C 225.791 205.278,225.638 205.395,225.309 205.395 C 224.980 205.395,224.473 205.838,224.183 206.380 C 223.893 206.922,223.458 207.247,223.216 207.102 C 222.975 206.958,223.047 207.178,223.377 207.592 C 223.726 208.031,223.768 208.220,223.477 208.045 C 223.159 207.854,222.977 207.981,222.977 208.392 C 222.977 208.747,222.797 208.927,222.577 208.791 C 222.216 208.568,222.003 209.100,222.134 209.901 C 222.162 210.072,221.914 210.316,221.582 210.443 C 221.250 210.571,220.979 211.045,220.979 211.498 C 220.979 211.951,220.860 212.202,220.715 212.057 C 220.282 211.624,219.470 213.532,219.866 214.052 C 220.104 214.364,219.933 214.610,219.349 214.795 C 218.666 215.012,218.596 215.148,219.028 215.422 C 219.460 215.696,219.467 215.773,219.057 215.778 C 218.770 215.781,218.634 215.945,218.755 216.142 C 218.877 216.339,218.711 216.602,218.386 216.726 C 217.963 216.889,217.865 217.297,218.040 218.174 C 218.234 219.142,218.163 219.348,217.700 219.171 C 217.378 219.047,217.104 219.178,217.090 219.463 C 216.960 221.995,216.598 224.623,216.321 225.052 C 216.136 225.339,215.956 226.363,215.921 227.326 C 215.887 228.295,215.619 229.230,215.322 229.418 C 214.923 229.671,214.913 229.760,215.285 229.764 C 215.559 229.767,215.784 229.961,215.784 230.193 C 215.784 230.426,215.604 230.505,215.385 230.370 C 215.165 230.234,214.985 230.414,214.985 230.769 C 214.985 231.156,215.170 231.301,215.446 231.131 C 215.764 230.934,215.796 231.020,215.549 231.407 C 215.177 231.989,215.100 232.650,215.028 235.888 C 215.000 237.155,214.838 237.718,214.553 237.542 C 214.295 237.383,214.152 237.575,214.199 238.018 C 214.243 238.427,214.257 261.555,214.232 289.413 L 214.186 340.065 185.315 339.963 L 156.444 339.860 156.444 245.155 L 156.444 150.450 184.296 150.250 C 199.615 150.140,212.014 150.184,211.851 150.347 C 211.688 150.510,199.244 150.692,184.199 150.752 L 156.843 150.860 184.715 150.855 L 212.588 150.849 212.587 163.057 C 212.587 170.518,212.435 175.417,212.195 175.657 C 211.938 175.914,212.305 176.045,213.260 176.037 C 214.481 176.026,214.728 175.878,214.784 175.125 C 214.855 174.176,215.385 173.345,215.385 174.183 C 215.385 174.452,215.564 174.561,215.784 174.426 C 216.004 174.290,216.184 173.830,216.184 173.403 C 216.184 172.976,216.364 172.627,216.583 172.627 C 216.803 172.627,216.983 172.347,216.983 172.004 C 216.983 171.662,217.163 171.493,217.383 171.628 C 217.602 171.764,217.782 171.574,217.782 171.206 C 217.782 170.838,218.539 169.846,219.463 169.001 C 220.387 168.156,221.018 167.338,220.863 167.184 C 220.546 166.867,224.590 162.782,225.067 162.937 C 225.236 162.992,225.375 162.763,225.375 162.428 C 225.375 162.093,225.779 161.664,226.274 161.475 C 227.236 161.106,228.479 159.897,228.569 159.241 C 228.599 159.021,228.882 158.894,229.197 158.959 C 229.512 159.023,229.770 158.888,229.770 158.659 C 229.770 158.429,230.130 158.242,230.569 158.242 C 231.009 158.242,231.369 157.994,231.369 157.691 C 231.369 157.388,231.902 156.919,232.554 156.649 C 233.206 156.379,233.841 155.839,233.965 155.449 C 234.088 155.059,234.702 154.638,235.328 154.513 C 235.955 154.387,236.759 153.994,237.115 153.637 C 237.471 153.281,237.762 153.120,237.762 153.280 C 237.762 153.440,238.111 153.255,238.536 152.870 C 238.962 152.485,239.486 152.278,239.701 152.411 C 239.916 152.544,240.152 152.470,240.227 152.246 C 240.301 152.023,240.785 151.759,241.301 151.659 C 241.817 151.560,242.462 151.294,242.735 151.068 C 243.007 150.841,243.358 150.784,243.514 150.940 C 243.671 151.097,243.679 150.914,243.534 150.534 C 243.307 149.943,243.470 149.870,244.677 150.024 C 245.625 150.146,246.153 150.028,246.293 149.665 C 246.406 149.369,247.053 149.005,247.729 148.856 C 248.405 148.708,248.856 148.421,248.731 148.219 C 248.606 148.017,248.680 147.852,248.894 147.852 C 249.109 147.852,249.378 148.077,249.492 148.352 C 249.649 148.728,249.829 148.699,250.225 148.235 C 250.513 147.896,251.248 147.661,251.857 147.712 C 252.470 147.764,252.861 147.637,252.733 147.429 C 252.529 147.099,253.728 146.847,254.687 147.020 C 254.875 147.053,255.280 146.873,255.587 146.618 C 256.010 146.267,256.144 146.269,256.144 146.628 C 256.144 146.908,256.347 146.971,256.643 146.783 C 256.918 146.609,257.413 146.448,257.742 146.425 C 258.072 146.403,258.674 146.239,259.081 146.061 C 259.508 145.875,259.931 145.906,260.080 146.135 C 260.382 146.598,261.738 146.664,261.738 146.216 C 261.738 145.552,276.439 145.503,276.890 146.166 M89.311 150.649 L 60.539 150.857 89.209 150.953 L 117.879 151.049 117.980 245.654 L 118.082 340.260 89.211 340.155 L 60.340 340.050 60.340 245.150 L 60.340 150.250 89.211 150.346 L 118.082 150.442 89.311 150.649 " stroke="none" fill="#2c64b4" fill-rule="evenodd"></path><path id="path1" d="M391.659 9.064 C 392.653 10.281,394.006 11.557,394.000 11.271 C 393.990 10.868,391.761 8.392,391.407 8.392 C 391.244 8.392,391.358 8.694,391.659 9.064 M86.513 55.944 C 86.357 56.197,87.383 56.344,89.311 56.344 C 91.238 56.344,92.264 56.197,92.108 55.944 C 91.972 55.724,90.713 55.544,89.311 55.544 C 87.908 55.544,86.649 55.724,86.513 55.944 M93.107 55.944 C 93.107 56.164,93.377 56.344,93.706 56.344 C 94.036 56.344,94.306 56.164,94.306 55.944 C 94.306 55.724,94.036 55.544,93.706 55.544 C 93.377 55.544,93.107 55.724,93.107 55.944 M97.044 56.844 C 97.246 57.046,97.836 57.144,98.356 57.062 C 99.155 56.936,99.099 56.880,97.989 56.696 C 97.195 56.564,96.823 56.623,97.044 56.844 M72.385 59.896 C 72.007 60.136,71.977 60.323,72.285 60.513 C 72.528 60.663,72.727 60.585,72.727 60.340 C 72.727 60.094,72.895 59.996,73.099 60.123 C 73.304 60.249,73.584 60.170,73.722 59.947 C 74.027 59.454,73.136 59.420,72.385 59.896 M113.100 66.172 C 113.093 66.412,113.447 66.935,113.886 67.333 C 114.658 68.031,114.685 68.031,114.685 67.328 C 114.685 66.928,114.568 66.717,114.425 66.860 C 114.282 67.003,113.928 66.809,113.639 66.427 C 113.349 66.046,113.107 65.931,113.100 66.172 M122.750 89.420 C 122.768 91.457,122.919 93.209,123.085 93.312 C 123.373 93.490,123.172 86.951,122.864 86.114 C 122.783 85.894,122.732 87.382,122.750 89.420 M55.302 88.478 C 55.183 88.789,55.162 89.553,55.255 90.176 C 55.401 91.150,55.433 91.104,55.485 89.843 C 55.518 89.038,55.769 88.288,56.044 88.177 C 56.435 88.019,56.432 87.968,56.031 87.944 C 55.750 87.926,55.422 88.167,55.302 88.478 M57.786 102.098 C 58.115 103.567,58.344 103.886,58.336 102.864 C 58.332 102.443,58.147 101.828,57.924 101.499 C 57.628 101.061,57.590 101.222,57.786 102.098 M60.340 106.849 C 60.340 107.171,60.574 107.673,60.862 107.963 C 61.149 108.254,61.503 108.806,61.648 109.191 C 61.794 109.575,62.111 109.890,62.352 109.890 C 62.594 109.890,62.425 109.375,61.977 108.746 C 61.529 108.117,61.229 107.532,61.310 107.447 C 61.391 107.362,61.206 107.061,60.899 106.777 C 60.440 106.354,60.340 106.367,60.340 106.849 M115.927 109.514 C 115.402 109.952,115.086 110.424,115.226 110.564 C 115.365 110.703,115.840 110.401,116.281 109.893 C 117.527 108.457,117.383 108.302,115.927 109.514 M68.041 115.884 C 69.188 116.786,69.530 116.873,69.530 116.260 C 69.530 116.027,69.371 115.935,69.176 116.056 C 68.981 116.176,68.600 116.007,68.328 115.680 C 68.056 115.353,67.652 115.085,67.430 115.085 C 67.207 115.085,67.482 115.445,68.041 115.884 M92.935 123.031 C 92.815 123.226,93.044 123.471,93.444 123.576 C 93.886 123.691,94.172 123.552,94.172 123.222 C 94.172 122.616,93.277 122.478,92.935 123.031 M280.120 146.054 C 280.120 146.466,280.382 146.662,280.819 146.577 C 281.661 146.415,281.608 145.706,280.740 145.525 C 280.378 145.450,280.120 145.670,280.120 146.054 M258.756 146.230 C 258.629 146.436,258.888 146.578,259.332 146.544 C 259.776 146.511,260.140 146.342,260.140 146.169 C 260.140 145.727,259.037 145.775,258.756 146.230 M288.853 147.488 C 288.618 147.633,288.898 147.752,289.475 147.752 C 290.052 147.752,290.597 147.633,290.687 147.488 C 290.777 147.343,290.497 147.224,290.065 147.224 C 289.634 147.224,289.088 147.343,288.853 147.488 M184.216 150.246 L 156.444 150.450 156.444 245.155 L 156.444 339.860 185.215 339.864 L 213.986 339.868 185.315 339.762 L 156.643 339.655 156.643 245.152 L 156.643 150.649 184.192 150.649 C 202.127 150.649,211.827 150.510,211.988 150.250 C 212.124 150.030,212.179 149.893,212.111 149.946 C 212.044 149.999,199.491 150.133,184.216 150.246 M60.340 245.150 L 60.340 340.050 89.273 340.155 C 105.186 340.212,118.122 340.125,118.020 339.960 C 117.918 339.795,104.988 339.660,89.287 339.660 L 60.739 339.660 60.739 245.157 L 60.739 150.655 89.411 150.549 L 118.082 150.444 89.211 150.347 L 60.340 150.250 60.340 245.150 M212.082 151.053 C 211.523 152.156,211.919 175.944,212.498 176.061 C 212.778 176.117,212.868 176.088,212.697 175.994 C 212.527 175.901,212.439 172.184,212.502 167.733 C 212.649 157.350,212.471 150.285,212.082 151.053 M234.009 155.277 C 233.634 156.255,233.715 156.352,234.366 155.701 C 235.045 155.022,235.132 154.645,234.608 154.645 C 234.412 154.645,234.142 154.930,234.009 155.277 M310.183 155.445 C 310.651 156.195,311.289 156.524,311.289 156.015 C 311.289 155.717,310.214 154.645,309.915 154.645 C 309.788 154.645,309.908 155.005,310.183 155.445 M316.084 159.207 C 316.084 159.629,317.288 160.768,317.504 160.551 C 317.605 160.451,317.326 160.042,316.886 159.643 C 316.445 159.244,316.084 159.048,316.084 159.207 M332.948 184.557 C 332.525 184.825,332.528 184.968,332.965 185.330 C 333.379 185.673,333.513 185.598,333.558 184.995 C 333.625 184.107,333.640 184.118,332.948 184.557 M246.853 196.885 C 247.348 196.981,248.157 196.981,248.651 196.885 C 249.146 196.790,248.741 196.712,247.752 196.712 C 246.763 196.712,246.359 196.790,246.853 196.885 M252.448 196.885 C 252.942 196.981,253.751 196.981,254.246 196.885 C 254.740 196.790,254.336 196.712,253.347 196.712 C 252.358 196.712,251.953 196.790,252.448 196.885 M336.721 199.001 C 337.038 200.724,337.265 201.049,337.257 199.767 C 337.253 199.236,337.074 198.531,336.858 198.202 C 336.581 197.780,336.541 198.017,336.721 199.001 M234.320 199.176 C 234.193 199.506,233.832 199.647,233.468 199.507 C 233.050 199.347,232.934 199.423,233.125 199.732 C 233.307 200.026,233.133 200.200,232.658 200.200 C 232.242 200.200,231.901 200.453,231.901 200.762 C 231.901 201.178,232.289 201.080,233.389 200.385 C 234.208 199.869,234.996 199.565,235.142 199.711 C 235.288 199.856,235.288 199.666,235.143 199.289 C 234.822 198.451,234.609 198.422,234.320 199.176 M270.548 203.431 C 270.793 203.889,271.073 204.185,271.171 204.087 C 271.450 203.808,270.883 202.597,270.473 202.597 C 270.269 202.597,270.302 202.972,270.548 203.431 M337.766 205.110 C 337.781 205.942,337.939 206.477,338.117 206.299 C 338.295 206.121,338.283 205.440,338.090 204.786 C 337.744 203.612,337.740 203.616,337.766 205.110 M337.662 207.550 C 337.662 207.856,337.936 208.211,338.271 208.340 C 338.768 208.530,338.802 208.428,338.457 207.783 C 337.961 206.857,337.662 206.769,337.662 207.550 M338.567 214.203 C 338.532 215.073,338.636 215.784,338.797 215.784 C 339.109 215.784,339.124 213.116,338.814 212.806 C 338.713 212.705,338.602 213.334,338.567 214.203 M279.726 220.879 C 279.744 221.755,280.508 222.336,280.513 221.479 C 280.517 220.984,280.340 220.579,280.120 220.579 C 279.900 220.579,279.723 220.714,279.726 220.879 M339.261 222.378 C 339.261 223.367,339.441 224.176,339.660 224.176 C 339.880 224.176,340.060 223.367,340.060 222.378 C 340.060 221.389,339.880 220.579,339.660 220.579 C 339.441 220.579,339.261 221.389,339.261 222.378 M339.325 229.271 C 339.290 231.523,339.396 233.367,339.560 233.368 C 339.725 233.368,339.811 232.064,339.751 230.470 C 339.563 225.493,339.391 225.010,339.325 229.271 M280.919 231.997 C 280.919 232.342,281.189 232.894,281.518 233.224 C 282.051 233.757,282.118 233.687,282.118 232.596 C 282.118 231.771,281.921 231.369,281.518 231.369 C 281.189 231.369,280.919 231.651,280.919 231.997 M339.556 234.202 C 339.931 234.682,340.078 239.373,340.160 253.383 L 340.268 271.928 340.364 253.296 C 340.453 235.959,340.411 234.625,339.760 234.115 C 339.142 233.630,339.118 233.640,339.556 234.202 M281.916 288.911 L 281.918 339.860 310.785 339.963 L 339.651 340.065 339.756 306.458 C 339.813 287.974,339.721 272.765,339.551 272.659 C 339.380 272.554,339.267 272.616,339.298 272.797 C 339.330 272.979,339.334 288.097,339.308 306.394 L 339.261 339.660 310.691 339.660 L 282.121 339.660 282.017 288.811 L 281.914 237.962 281.916 288.911 " stroke="none" fill="#2c6cb4" fill-rule="evenodd"></path></g></svg>